<svg width="266" height="87" viewBox="0 0 266 87" fill="none" xmlns="http://www.w3.org/2000/svg">
<g clip-path="url(#clip0_382_1279)">
<path fill-rule="evenodd" clip-rule="evenodd" d="M44.2688 17.0518C58.7659 17.0518 70.5975 28.9279 70.5975 43.482C70.5975 58.036 58.7779 69.8762 44.2688 69.8762C29.7596 69.8762 17.928 58 17.928 43.482C17.928 28.964 29.7717 17.0518 44.2688 17.0518Z" fill="#FF5100"/>
<path d="M72.3099 72.35C66.4122 75.6042 60.5024 77.3334 59.5496 77.7537C59.4893 77.7777 59.4169 77.8138 59.3566 77.8378C59.622 77.7297 59.8752 77.6096 60.1406 77.4895C59.8873 77.5736 59.7064 77.6456 59.5858 77.6937C49.4065 82.1848 37.3457 82.1608 26.7321 76.6009C8.29118 66.9342 1.19942 44.2266 10.9084 25.8779C10.9084 25.8779 11.9697 23.9566 12.4883 23.128C13.3447 21.7711 14.6713 20.2581 14.6713 20.2581C14.6713 20.2581 11.5355 21.4349 6.78358 29.9367C2.94824 36.8175 0.692871 47.0846 0.692871 47.1086C1.94719 61.3864 10.233 74.7516 23.9099 81.9206C45.2696 93.1123 71.6948 84.9587 82.9717 63.716C82.9114 63.7881 78.8831 68.7235 72.3099 72.362V72.35Z" fill="#003DA6"/>
<path d="M83.0075 63.644C83.0075 63.644 83.0075 63.6556 82.9958 63.6672C82.9958 63.6672 82.9959 63.644 83.0075 63.644Z" fill="#003DA6"/>
<path d="M1.04272 36.6614C1.05479 36.5654 1.06685 36.4813 1.09097 36.3853C1.07891 36.4813 1.06685 36.5654 1.04272 36.6614Z" fill="#003DA6"/>
<path d="M14.6714 20.2579C25.7191 6.34025 45.4868 1.7771 61.8171 10.339C80.258 19.9937 87.3377 42.7013 77.6288 61.062C73.4799 68.9154 66.9309 74.7034 59.3446 77.9937C59.4049 77.9697 59.4773 77.9336 59.5376 77.9096C60.4783 77.4893 66.4002 75.7601 72.2979 72.5059C78.9193 68.8434 82.9597 63.8599 82.9597 63.8599C94.2124 42.5692 85.999 16.2231 64.6152 5.03135C43.2434 -6.18439 16.782 1.99325 5.54137 23.2839C5.54137 23.2839 2.90005 27.2347 1.33214 35.1962C-0.0307261 42.1129 0.692922 47.2525 0.692922 47.2525C0.692922 47.2525 2.94829 36.8293 6.79569 29.9365C11.5356 21.4347 14.6835 20.2579 14.6835 20.2579H14.6714Z" fill="#003DA6"/>
<path d="M31.2069 44.779C29.3254 44.9952 27.468 43.9265 26.7685 42.0772C25.9484 39.9037 28.5053 39.0511 29.5425 36.7935C30.5797 34.536 29.5425 32.0503 31.7255 31.2337C33.9085 30.4171 35.995 31.4498 37.177 33.6954C38.3589 35.9409 37.177 33.6954 37.177 33.6954C37.177 33.6954 40.1681 40.3 41.6636 43.6262L43.0506 42.8457C41.6154 39.4113 38.1057 31.9182 38.1057 31.9182C38.1057 31.9182 39.6736 34.9202 38.1057 31.9182C36.5378 28.9161 33.7517 27.5351 30.833 28.6279C27.9143 29.7207 29.3013 33.0229 27.9263 36.049C26.5514 39.0631 23.1382 40.2039 24.2237 43.1099C25.1403 45.5596 27.6007 46.9886 30.0973 46.7364C30.3144 46.6884 30.7486 46.5803 31.4963 46.4122C33.1607 46.0159 35.392 45.3554 37.5026 44.671C37.9368 44.5269 37.7921 43.8904 37.3338 43.9505C34.4512 44.3587 31.0501 44.8271 31.2069 44.791V44.779Z" fill="white"/>
<path d="M60.5992 50.8913C61.9741 47.8772 65.3873 46.7365 64.3018 43.8304C63.3852 41.3808 60.9248 39.9518 58.4282 40.2039C58.2111 40.252 57.7769 40.3601 57.0291 40.5282C55.4974 40.8884 53.9657 41.3567 52.3978 41.8971C52.0842 42.0052 52.2169 42.4735 52.5425 42.4015C54.2793 42.0052 56.1246 41.6449 57.4754 41.5249C59.3569 41.3087 61.0454 43.0019 61.7449 44.8512C62.5651 47.0247 60.0082 47.8772 58.9709 50.1348C57.9337 52.3924 58.9709 54.8781 56.7879 55.6946C54.6049 56.5112 52.5184 55.4785 51.3365 53.2329C50.1545 50.9874 51.3365 53.2329 51.3365 53.2329C51.3365 53.2329 48.1283 45.7398 47.0669 43.3381L45.499 44.1427C46.8378 47.3969 50.3957 55.0102 50.3957 55.0102C50.3957 55.0102 48.8278 52.0081 50.3957 55.0102C51.9636 58.0122 54.7497 59.3932 57.6684 58.3004C60.5871 57.2077 59.2001 53.9054 60.575 50.8793L60.5992 50.8913Z" fill="white"/>
<path d="M47.6818 40.7202C50.2266 39.2792 53.8087 36.9977 53.8087 36.9977C53.8087 36.9977 50.6367 38.931 53.8087 36.9977C55.9797 35.6768 57.1013 33.7554 56.2812 31.5699C55.461 29.3964 52.9765 30.4291 50.697 29.3964C48.4175 28.3637 47.5733 25.818 45.3903 26.6345C43.5329 27.331 42.4595 29.1803 42.6766 31.0536C42.6042 30.7774 42.6283 30.8494 42.6766 31.0536C42.7128 31.3898 42.7851 31.726 42.9178 32.0503C42.9178 32.0503 42.761 31.3778 42.6766 31.0536C42.7128 31.2217 42.7972 31.5459 42.9178 32.0503C43.4002 34.0676 45.2817 39.4233 46.1983 41.1045L44.5339 41.9691C43.4123 38.7629 41.7479 34.2238 41.0604 31.3298C40.8795 30.5852 40.783 30.165 40.7348 29.9368C40.4695 27.4511 41.9168 25.0014 44.3772 24.0888C47.2959 22.996 48.4296 26.3944 51.4689 27.7753C54.5082 29.1563 57.825 27.7753 58.9225 30.6693C60.02 33.5753 58.5004 36.1091 55.6178 37.9103C52.3252 39.9637 55.6178 37.9103 55.6178 37.9103C55.6178 37.9103 51.7463 40.1799 48.321 42.3053L40.8313 46.0759C38.4794 47.5409 34.7406 49.9066 34.7406 49.9066C34.7406 49.9066 37.1286 48.3935 34.7406 49.9066C32.5938 51.2635 31.448 53.1488 32.2681 55.3343C33.0882 57.5078 35.5728 56.4751 37.8523 57.5078C40.1318 58.5405 40.976 61.0863 43.159 60.2697C45.0164 59.5732 46.0898 57.724 45.8727 55.8507C45.9451 56.1269 45.9209 56.0548 45.8727 55.8507C45.8365 55.5144 45.7641 55.1782 45.6315 54.854C45.6315 54.854 45.7883 55.5264 45.8727 55.8507C45.8365 55.6825 45.7521 55.3583 45.6315 54.854C45.149 52.8366 43.6535 48.6817 42.4354 45.7397L43.8706 44.9592C45.0526 47.9252 46.8134 52.6805 47.5009 55.5745C47.6818 56.319 47.7783 56.7393 47.8265 56.9674C48.0919 59.4531 46.6446 61.9028 44.1842 62.8155C41.2655 63.9082 40.1318 60.5099 37.0924 59.1289C34.0531 57.748 30.7364 59.1289 29.6389 56.2349C28.5413 53.3289 30.266 51.0714 32.9435 48.9939C35.3919 47.0966 32.9435 48.9939 32.9435 48.9939C32.9435 48.9939 36.7788 46.4242 40.5298 44.6109L47.7059 40.7082L47.6818 40.7202Z" fill="white"/>
<path d="M48.9483 55.8505C49.2378 55.7184 51.0228 59.3089 53.8812 61.9147C57.2341 64.9648 59.7669 65.0608 59.7669 65.0608C59.7669 65.0608 58.8623 65.9735 57.7406 66.6939C56.619 67.4144 55.7627 67.5706 55.7627 67.5706C55.7627 67.5706 53.8932 65.9734 52.1444 63.1635C50.5765 60.6538 48.683 55.9826 48.9724 55.8505H48.9483Z" fill="white"/>
<path fill-rule="evenodd" clip-rule="evenodd" d="M81.9949 74.0432C84.0332 74.0432 85.6493 75.6043 85.6493 77.6097C85.6493 79.6151 84.0332 81.2002 81.9828 81.2002C79.9325 81.2002 78.2922 79.6151 78.2922 77.6097C78.2922 75.6043 79.9325 74.0432 81.9828 74.0432H82.007H81.9949ZM81.9467 74.7637C80.3908 74.7637 79.1968 76.0486 79.1968 77.6097C79.1968 79.1707 80.4029 80.4556 81.9949 80.4556C83.5507 80.4797 84.7327 79.1948 84.7327 77.6217C84.7327 76.0486 83.5507 74.7517 81.9828 74.7517H81.9587L81.9467 74.7637ZM81.4039 79.4589H80.5717V75.8925C80.8974 75.8445 81.3557 75.7844 81.9467 75.7844C82.6221 75.7844 82.9356 75.8925 83.1769 76.0726C83.394 76.2287 83.5507 76.4809 83.5507 76.8291C83.5507 77.2614 83.2251 77.5496 82.803 77.6817V77.7298C83.1527 77.8378 83.3336 78.126 83.4422 78.5943C83.5507 79.1347 83.6352 79.3389 83.7075 79.4589H82.8271C82.7186 79.3269 82.6582 79.0266 82.5376 78.5943C82.4773 78.2221 82.2482 78.054 81.7899 78.054H81.3919V79.471L81.4039 79.4589ZM81.428 77.4536H81.8261C82.2844 77.4536 82.6583 77.2975 82.6583 76.9252C82.6583 76.601 82.417 76.3848 81.8984 76.3848C81.6813 76.3848 81.5245 76.4088 81.4401 76.4329V77.4536H81.428Z" fill="#003DA6"/>
<path d="M133.434 38.1192V19.2541C133.434 18.2575 133.989 17.7051 135.002 17.7051H136.715C137.716 17.7051 138.283 18.2575 138.283 19.2541V38.1192C138.283 39.1158 137.728 39.6682 136.715 39.6682H135.002C134.001 39.6682 133.434 39.1158 133.434 38.1192Z" fill="#003DA6"/>
<path d="M169.617 30.446V38.1193C169.617 39.116 169.062 39.6684 168.049 39.6684H166.541C165.54 39.6684 164.985 39.116 164.985 38.1193V30.2059C164.985 27.7922 163.948 26.7115 161.705 26.7115C159.461 26.7115 158.629 27.7922 158.629 30.2059V38.1193C158.629 39.116 158.074 39.6684 157.073 39.6684H155.578C154.577 39.6684 154.022 39.116 154.022 38.1193V30.2059C154.022 27.7922 153.19 26.7115 150.947 26.7115C148.703 26.7115 147.666 27.7922 147.666 30.2059V38.1193C147.666 39.116 147.111 39.6684 146.098 39.6684H144.591C143.589 39.6684 143.035 39.116 143.035 38.1193V30.446C143.035 24.8021 145.965 22.7607 150.536 22.7607C153.552 22.7607 155.325 23.6253 156.326 25.1384C157.315 23.6133 159.088 22.7607 162.103 22.7607C166.686 22.7607 169.617 24.8021 169.617 30.446Z" fill="#003DA6"/>
<path d="M189.794 31.3705C189.794 37.8069 186.261 39.9684 180.302 39.9684C179.555 39.9684 178.759 39.9324 177.939 39.8723V44.8798C177.939 45.8765 177.384 46.4289 176.383 46.4289H174.791C173.79 46.4289 173.235 45.8765 173.235 44.8798V28.0562C173.235 24.2736 175.358 22.7485 180.315 22.7485C186.273 22.7485 189.806 24.934 189.806 31.3705H189.794ZM185.079 31.3705C185.079 27.8761 183.752 26.7113 180.628 26.7113C178.216 26.7113 177.951 27.3837 177.951 28.9808V35.8376C178.952 35.9576 179.832 36.0177 180.604 36.0177C183.764 36.0177 185.091 34.8649 185.091 31.3705H185.079Z" fill="#003DA6"/>
<path d="M206.583 23.0608H208.175C209.176 23.0608 209.743 23.6132 209.743 24.6099V32.1511C209.743 38.2152 206.667 39.9805 201.397 39.9805C196.126 39.9805 193.051 38.2273 193.051 32.1511V24.6099C193.051 23.6132 193.606 23.0608 194.607 23.0608H196.199C197.2 23.0608 197.755 23.6132 197.755 24.6099V32.2111C197.755 35.1892 198.84 36.0177 201.385 36.0177C203.93 36.0177 205.015 35.1892 205.015 32.2111V24.6099C205.015 23.6132 205.57 23.0608 206.583 23.0608Z" fill="#003DA6"/>
<path d="M215.315 16.012H216.992C217.993 16.012 218.56 16.5644 218.56 17.5731V38.1193C218.56 39.1159 218.005 39.6683 216.992 39.6683H215.315C214.314 39.6683 213.747 39.1159 213.747 38.1193V17.5611C213.747 16.5644 214.302 16 215.315 16V16.012Z" fill="#003DA6"/>
<path d="M222.226 37.5429V37.0746C222.226 35.9939 222.865 35.4895 223.975 35.6937C227.931 36.4502 231.983 36.6903 231.983 34.8171C231.983 34.0846 231.453 33.6883 230.319 33.3761L226.749 32.4634C223.42 31.6229 221.997 29.9657 221.997 27.6841C221.997 22.9409 228.16 21.9202 234.118 23.3972C235.035 23.6133 235.457 24.2258 235.457 25.1384V25.5467C235.457 26.6394 234.817 27.1197 233.708 26.8796C230.415 26.1711 226.508 26.003 226.508 27.552C226.508 28.1044 226.954 28.5007 227.714 28.6808L231.537 29.6655C234.866 30.5061 236.482 32.1272 236.482 34.697C236.482 39.9206 229.607 40.8812 223.553 39.2961C222.648 39.056 222.226 38.4676 222.226 37.5549V37.5429Z" fill="#003DA6"/>
<path d="M254.814 29.2452V34.8171C254.814 38.3355 253.198 39.6684 249.556 39.6684H245.696C241.559 39.6684 239.027 38.5756 239.027 34.6009C239.027 30.6262 241.571 29.5094 245.696 29.5094H250.098V29.2332C250.098 27.3719 248.627 26.5674 246.142 26.5674C244.924 26.5674 243.344 26.7715 241.764 27.0957C240.691 27.2999 240.052 26.8075 240.052 25.7268V25.1024C240.052 24.1777 240.582 23.5653 241.68 23.3491C243.525 22.9649 245.334 22.7607 246.818 22.7607C251.413 22.7607 254.814 24.7061 254.814 29.2452ZM250.098 34.5889V32.8837H245.937C243.887 32.8837 243.465 33.352 243.465 34.6129C243.465 35.8738 243.887 36.3181 245.925 36.3181H248.398C249.857 36.3181 250.098 35.7297 250.098 34.5889Z" fill="#003DA6"/>
<path d="M139.573 68.3922L138.355 64.0692H128.863L127.645 68.3922C127.392 69.2688 126.813 69.7131 125.896 69.7131H124.147C123.026 69.7131 122.519 69.0166 122.845 67.9599L127.343 53.0336C128.586 48.8427 130.25 47.4377 133.627 47.4377C137.004 47.4377 138.741 48.8187 139.911 53.0336L144.41 67.9599C144.735 69.0286 144.229 69.7131 143.107 69.7131H141.346C140.429 69.7131 139.851 69.2688 139.597 68.3922H139.573ZM135.364 53.4419C134.918 51.9529 134.496 51.5206 133.615 51.5206C132.735 51.5206 132.313 51.9649 131.866 53.4419L129.985 60.1065H137.233L135.364 53.4419Z" fill="#003DA6"/>
<path d="M146.954 67.5756V67.1073C146.954 66.0266 147.593 65.5222 148.703 65.7264C152.659 66.4829 156.711 66.7231 156.711 64.8498C156.711 64.1173 156.181 63.721 155.047 63.4088L151.477 62.4961C148.148 61.6556 146.725 59.9984 146.725 57.7168C146.725 52.9736 152.888 51.9529 158.846 53.4299C159.763 53.646 160.185 54.2585 160.185 55.1711V55.5794C160.185 56.6721 159.546 57.1525 158.436 56.9123C155.144 56.2038 151.236 56.0357 151.236 57.5848C151.236 58.1371 151.682 58.5334 152.442 58.7135L156.265 59.6982C159.594 60.5388 161.21 62.1599 161.21 64.7297C161.21 69.9533 154.335 70.9139 148.281 69.3289C147.376 69.0887 146.954 68.5003 146.954 67.5877V67.5756Z" fill="#003DA6"/>
<path d="M176.081 62.9284L168.905 63.673C169.52 65.5703 171.064 66.2427 173.319 66.2427C174.417 66.2427 175.743 66.0626 177.203 65.7024C178.3 65.4502 178.964 65.9185 178.964 67.0233V67.5276C178.964 68.4402 178.542 69.0287 177.637 69.2688C175.804 69.7612 174.067 70.0133 172.475 70.0133C167.337 70.0133 163.888 67.2274 163.888 61.4154C163.888 55.9276 166.806 52.7935 172.511 52.7935C177.299 52.7935 180.134 55.027 180.134 59.2539C180.134 61.6195 179.133 62.6162 176.081 62.9405V62.9284ZM175.671 58.8096C175.671 57.2005 174.682 56.3479 172.511 56.3479C170.147 56.3479 168.893 57.4166 168.64 60.2746L174.501 59.6862C175.49 59.5901 175.671 59.398 175.671 58.8216V58.8096Z" fill="#003DA6"/>
<path d="M182.92 67.5756V67.1073C182.92 66.0266 183.559 65.5222 184.668 65.7264C188.624 66.4829 192.677 66.7231 192.677 64.8498C192.677 64.1173 192.146 63.721 191.012 63.4088L187.442 62.4961C184.114 61.6556 182.69 59.9984 182.69 57.7168C182.69 52.9736 188.854 51.9529 194.812 53.4299C195.728 53.646 196.15 54.2585 196.15 55.1711V55.5794C196.15 56.6721 195.511 57.1525 194.401 56.9123C191.109 56.2038 187.201 56.0357 187.201 57.5848C187.201 58.1371 187.647 58.5334 188.407 58.7135L192.231 59.6982C195.559 60.5388 197.175 62.1599 197.175 64.7297C197.175 69.9533 190.301 70.9139 184.246 69.3289C183.342 69.0887 182.92 68.5003 182.92 67.5877V67.5756Z" fill="#003DA6"/>
<path d="M199.865 61.4034C199.865 55.9157 202.905 52.7815 208.453 52.7815C214 52.7815 217.04 55.9036 217.04 61.4034C217.04 66.9032 214 70.0014 208.453 70.0014C202.905 70.0014 199.865 66.8792 199.865 61.4034ZM212.252 61.4034C212.252 58.1252 210.997 56.7442 208.453 56.7442C205.908 56.7442 204.653 58.1252 204.653 61.4034C204.653 64.6817 205.908 66.0506 208.453 66.0506C210.997 66.0506 212.252 64.6457 212.252 61.4034Z" fill="#003DA6"/>
<path d="M230.524 54.4747V55.4594C230.524 56.4561 229.933 57.0205 228.811 57.0325C225.241 57.0805 225.096 57.3927 225.096 58.6536V68.1521C225.096 69.1488 224.542 69.7012 223.528 69.7012H221.852C220.851 69.7012 220.296 69.1488 220.296 68.1521V57.9811C220.296 54.1145 221.683 53.0577 228.871 52.9497C229.957 52.9377 230.536 53.478 230.536 54.4867L230.524 54.4747Z" fill="#003DA6"/>
<path d="M244.418 62.9284L237.242 63.673C237.857 65.5703 239.401 66.2427 241.656 66.2427C242.753 66.2427 244.08 66.0626 245.539 65.7024C246.637 65.4502 247.3 65.9185 247.3 67.0233V67.5276C247.3 68.4402 246.878 69.0287 245.974 69.2688C244.14 69.7612 242.404 70.0133 240.812 70.0133C235.674 70.0133 232.224 67.2274 232.224 61.4154C232.224 55.9276 235.143 52.7935 240.848 52.7935C245.636 52.7935 248.47 55.027 248.47 59.2539C248.47 61.6195 247.469 62.6162 244.418 62.9405V62.9284ZM244.008 58.8096C244.008 57.2005 243.019 56.3479 240.848 56.3479C238.484 56.3479 237.23 57.4166 236.976 60.2746L242.838 59.6862C243.827 59.5901 244.008 59.398 244.008 58.8216V58.8096Z" fill="#003DA6"/>
<path d="M251.244 67.5756V67.1073C251.244 66.0266 251.883 65.5222 252.993 65.7264C256.949 66.4829 261.001 66.7231 261.001 64.8498C261.001 64.1173 260.471 63.721 259.337 63.4088L255.767 62.4961C252.438 61.6556 251.015 59.9984 251.015 57.7168C251.015 52.9736 257.178 51.9529 263.136 53.4299C264.053 53.646 264.475 54.2585 264.475 55.1711V55.5794C264.475 56.6721 263.836 57.1525 262.726 56.9123C259.433 56.2038 255.526 56.0357 255.526 57.5848C255.526 58.1371 255.972 58.5334 256.732 58.7135L260.555 59.6982C263.884 60.5388 265.5 62.1599 265.5 64.7297C265.5 69.9533 258.625 70.9139 252.571 69.3289C251.666 69.0887 251.244 68.5003 251.244 67.5877V67.5756Z" fill="#003DA6"/>
<path d="M105.055 5.19958H102.812V81.5963H105.055V5.19958Z" fill="#003DA6"/>
</g>
<defs>
<clipPath id="clip0_382_1279">
<rect width="265" height="87" fill="white" transform="translate(0.5)"/>
</clipPath>
</defs>
</svg>
