<svg width="89" height="87" viewBox="0 0 89 87" fill="none" xmlns="http://www.w3.org/2000/svg">
<path fill-rule="evenodd" clip-rule="evenodd" d="M44.2688 17.0518C58.7659 17.0518 70.5975 28.9279 70.5975 43.482C70.5975 58.036 58.7779 69.8762 44.2688 69.8762C29.7596 69.8762 17.928 58 17.928 43.482C17.928 28.964 29.7717 17.0518 44.2688 17.0518Z" fill="#FF5100"/>
<path d="M72.3099 72.35C66.4122 75.6042 60.5024 77.3334 59.5496 77.7537C59.4893 77.7777 59.4169 77.8138 59.3566 77.8378C59.622 77.7297 59.8752 77.6096 60.1406 77.4895C59.8873 77.5736 59.7064 77.6456 59.5858 77.6937C49.4065 82.1848 37.3457 82.1608 26.7321 76.6009C8.29118 66.9342 1.19942 44.2266 10.9084 25.8779C10.9084 25.8779 11.9697 23.9566 12.4883 23.128C13.3447 21.7711 14.6713 20.2581 14.6713 20.2581C14.6713 20.2581 11.5355 21.4349 6.78358 29.9367C2.94824 36.8175 0.692871 47.0846 0.692871 47.1086C1.94719 61.3864 10.233 74.7516 23.9099 81.9206C45.2696 93.1123 71.6948 84.9587 82.9717 63.716C82.9114 63.7881 78.8831 68.7235 72.3099 72.362V72.35Z" fill="#003DA6"/>
<path d="M83.0075 63.6439C83.0075 63.6439 83.0075 63.6555 82.9958 63.6671C82.9958 63.6671 82.9959 63.6439 83.0075 63.6439Z" fill="#003DA6"/>
<path d="M1.04272 36.6613C1.05479 36.5653 1.06685 36.4812 1.09097 36.3851C1.07891 36.4812 1.06685 36.5653 1.04272 36.6613Z" fill="#003DA6"/>
<path d="M14.6714 20.2579C25.7191 6.34025 45.4868 1.7771 61.8171 10.339C80.258 19.9937 87.3377 42.7013 77.6288 61.062C73.4799 68.9154 66.9309 74.7034 59.3446 77.9937C59.4049 77.9697 59.4773 77.9336 59.5376 77.9096C60.4783 77.4893 66.4002 75.7601 72.2979 72.5059C78.9193 68.8434 82.9597 63.8599 82.9597 63.8599C94.2124 42.5692 85.999 16.2231 64.6152 5.03135C43.2434 -6.18439 16.782 1.99325 5.54137 23.2839C5.54137 23.2839 2.90005 27.2347 1.33214 35.1962C-0.0307261 42.1129 0.692922 47.2525 0.692922 47.2525C0.692922 47.2525 2.94829 36.8293 6.79569 29.9365C11.5356 21.4347 14.6835 20.2579 14.6835 20.2579H14.6714Z" fill="#003DA6"/>
<path d="M31.2069 44.7789C29.3254 44.9951 27.468 43.9263 26.7685 42.0771C25.9484 39.9036 28.5053 39.051 29.5425 36.7934C30.5797 34.5359 29.5425 32.0501 31.7255 31.2336C33.9085 30.417 35.995 31.4497 37.177 33.6953C37.177 33.6953 38.3589 35.9408 37.177 33.6953C37.177 33.6953 40.1681 40.2998 41.6636 43.6261L43.0506 42.8456C41.6154 39.4112 38.1057 31.918 38.1057 31.918C38.1057 31.918 39.6736 34.9201 38.1057 31.918C36.5378 28.916 33.7517 27.535 30.833 28.6278C27.9143 29.7205 29.3013 33.0228 27.9263 36.0489C26.5514 39.063 23.1382 40.2038 24.2237 43.1098C25.1403 45.5595 27.6007 46.9884 30.0973 46.7363C30.3144 46.6882 30.7486 46.5802 31.4963 46.412C33.1607 46.0158 35.392 45.3553 37.5026 44.6708C37.9368 44.5267 37.7921 43.8903 37.3338 43.9503C34.4512 44.3586 31.0501 44.827 31.2069 44.7909V44.7789Z" fill="white"/>
<path d="M60.5992 50.8911C61.9741 47.877 65.3873 46.7362 64.3018 43.8302C63.3852 41.3805 60.9248 39.9515 58.4282 40.2037C58.2111 40.2517 57.7769 40.3598 57.0291 40.5279C55.4974 40.8882 53.9657 41.3565 52.3978 41.8969C52.0842 42.0049 52.2169 42.4733 52.5425 42.4012C54.2793 42.0049 56.1246 41.6447 57.4754 41.5246C59.3569 41.3085 61.0454 43.0016 61.7449 44.8509C62.5651 47.0244 60.0082 47.877 58.9709 50.1346C57.9337 52.3921 58.9709 54.8778 56.7879 55.6944C54.6049 56.511 52.5184 55.4782 51.3365 53.2327C50.1545 50.9871 51.3365 53.2327 51.3365 53.2327C51.3365 53.2327 48.1283 45.7395 47.0669 43.3379L45.499 44.1424C46.8378 47.3967 50.3957 55.0099 50.3957 55.0099C48.8278 52.0078 50.3957 55.0099 50.3957 55.0099C51.9636 58.012 54.7497 59.3929 57.6684 58.3002C60.5871 57.2074 59.2001 53.9052 60.575 50.8791L60.5992 50.8911Z" fill="white"/>
<path d="M47.6818 40.7201C50.2266 39.2791 53.8087 36.9975 53.8087 36.9975C50.6367 38.9309 53.8087 36.9975 53.8087 36.9975C55.9797 35.6766 57.1013 33.7553 56.2812 31.5698C55.461 29.3963 52.9765 30.429 50.697 29.3963C48.4175 28.3636 47.5733 25.8178 45.3903 26.6344C43.5329 27.3309 42.4595 29.1802 42.6766 31.0534C42.6042 30.7773 42.6283 30.8493 42.6766 31.0534C42.7128 31.3897 42.7851 31.7259 42.9178 32.0501C42.9178 32.0501 42.761 31.3777 42.6766 31.0534C42.7128 31.2216 42.7972 31.5458 42.9178 32.0501C43.4002 34.0675 45.2817 39.4232 46.1983 41.1044L44.5339 41.969C43.4123 38.7628 41.7479 34.2236 41.0604 31.3296C40.8795 30.5851 40.783 30.1648 40.7348 29.9367C40.4695 27.451 41.9168 25.0013 44.3772 24.0886C47.2959 22.9959 48.4296 26.3942 51.4689 27.7752C54.5082 29.1561 57.825 27.7752 58.9225 30.6692C60.02 33.5752 58.5004 36.1089 55.6178 37.9102C52.3252 39.9636 55.6178 37.9102 55.6178 37.9102C55.6178 37.9102 51.7463 40.1797 48.321 42.3052L40.8313 46.0758C38.4794 47.5408 34.7406 49.9064 34.7406 49.9064C34.7406 49.9064 37.1286 48.3934 34.7406 49.9064C32.5938 51.2634 31.448 53.1487 32.2681 55.3342C33.0882 57.5077 35.5728 56.475 37.8523 57.5077C40.1318 58.5404 40.976 61.0862 43.159 60.2696C45.0164 59.5731 46.0898 57.7238 45.8727 55.8505C45.9209 56.0547 45.9451 56.1267 45.8727 55.8505C45.8365 55.5143 45.7641 55.1781 45.6315 54.8539C45.6315 54.8539 45.7883 55.5263 45.8727 55.8505C45.8365 55.6824 45.7521 55.3582 45.6315 54.8539C45.149 52.8365 43.6535 48.6816 42.4354 45.7396L43.8706 44.959C45.0526 47.9251 46.8134 52.6804 47.5009 55.5744C47.6818 56.3189 47.7783 56.7392 47.8265 56.9673C48.0919 59.453 46.6446 61.9027 44.1842 62.8153C41.2655 63.9081 40.1318 60.5098 37.0924 59.1288C34.0531 57.7479 30.7364 59.1288 29.6389 56.2348C28.5413 53.3288 30.266 51.0712 32.9435 48.9938C32.9435 48.9938 35.3919 47.0965 32.9435 48.9938C32.9435 48.9938 36.7788 46.424 40.5298 44.6108L47.7059 40.7081L47.6818 40.7201Z" fill="white"/>
<path d="M48.9483 55.8506C49.2378 55.7185 51.0228 59.309 53.8812 61.9148C57.2341 64.9649 59.7669 65.0609 59.7669 65.0609C59.7669 65.0609 58.8623 65.9736 57.7406 66.6941C56.619 67.4146 55.7627 67.5707 55.7627 67.5707C55.7627 67.5707 53.8932 65.9736 52.1444 63.1636C50.5765 60.6539 48.683 55.9827 48.9724 55.8506H48.9483Z" fill="white"/>
<path fill-rule="evenodd" clip-rule="evenodd" d="M81.9949 74.0431C84.0332 74.0431 85.6493 75.6042 85.6493 77.6095C85.6493 79.6149 84.0332 81.2 81.9828 81.2C79.9325 81.2 78.2922 79.6149 78.2922 77.6095C78.2922 75.6042 79.9325 74.0431 81.9828 74.0431H82.007H81.9949ZM81.9467 74.7636C80.3908 74.7636 79.1968 76.0485 79.1968 77.6095C79.1968 79.1706 80.4029 80.4555 81.9949 80.4555C83.5507 80.4795 84.7327 79.1946 84.7327 77.6216C84.7327 76.0485 83.5507 74.7516 81.9828 74.7516H81.9587L81.9467 74.7636ZM81.4039 79.4588H80.5717V75.8924C80.8974 75.8443 81.3557 75.7843 81.9467 75.7843C82.6221 75.7843 82.9356 75.8924 83.1769 76.0725C83.394 76.2286 83.5507 76.4808 83.5507 76.829C83.5507 77.2613 83.2251 77.5495 82.803 77.6816V77.7296C83.1527 77.8377 83.3336 78.1259 83.4422 78.5942C83.5507 79.1346 83.6352 79.3387 83.7075 79.4588H82.8271C82.7186 79.3267 82.6582 79.0265 82.5376 78.5942C82.4773 78.222 82.2482 78.0539 81.7899 78.0539H81.3919V79.4708L81.4039 79.4588ZM81.428 77.4534H81.8261C82.2844 77.4534 82.6583 77.2973 82.6583 76.9251C82.6583 76.6009 82.417 76.3847 81.8984 76.3847C81.6813 76.3847 81.5245 76.4087 81.4401 76.4327V77.4534H81.428Z" fill="#003DA6"/>
</svg>
